<svg xmlns="http://www.w3.org/2000/svg" xml:space="preserve" viewBox="0 0 512 512">
  <linearGradient id="a" x1="3.86" x2="508.11" y1="256.005" y2="256.005" gradientUnits="userSpaceOnUse">
    <stop offset="0" stop-color="#a5cd39"/>
    <stop offset="1" stop-color="#8ebd3f"/>
  </linearGradient>
  <path fill="url(#a)" d="M435.6 3.9H76.4c-40 0-72.5 32.5-72.5 72.5v359.2c0 40 32.5 72.5 72.5 72.5h359.2c40 0 72.5-32.5 72.5-72.5V76.4c0-40-32.5-72.5-72.5-72.5z"/>
  <path fill="#fff" fill-rule="evenodd" d="M213.8 297.4c-6.3 2.2-18.3 5.1-30.3 5.1-16.6 0-28.6-4.2-36.9-12.3-3-2.8-5.5-6.1-7.5-9.9 4.6-7.1 7.2-15.6 7.2-24.7 0-8.4-2.3-16.3-6.3-23.1 8.6-14.7 25.3-22.8 45.6-22.8 11.7 0 20.8 2.3 25.2 4.4l-4.3 16.4c-5-2.2-11.2-3.9-21.2-3.9-17.1 0-30.1 9.7-30.1 29.4 0 18.7 11.7 29.8 28.6 29.8 4.7 0 8.5-.5 10.1-1.3v-19h-14v-16h33.8v47.9zm47.7-36.3c0-5-2.2-13.3-11.6-13.3-8.6 0-12.1 7.8-12.7 13.3h24.3zm-24.2 14.1c.7 8.5 9 12.5 18.6 12.5 7 0 12.7-.9 18.2-2.7l2.7 13.9c-6.7 2.7-15 4-23.9 4-22.4 0-35.2-12.9-35.2-33.6 0-16.7 10.4-35.2 33.3-35.2 21.3 0 29.4 16.6 29.4 32.9 0 3.5-.4 6.6-.7 8.1h-42.4zm47.6 26.4h20.5v-38c0-1.9.3-3.9.8-5.1 1.3-3.8 4.7-7.7 10.4-7.7 7.4 0 10.4 5.8 10.4 14.3v36.5h20.5v-39.1c0-19.4-10.1-28.3-23.6-28.3-10.9 0-17.7 6.3-20.4 10.5h-.4l-.9-9h-17.8c.3 5.8.5 12.8.5 21v44.9zm74.9-80.2v14.3H351v15.1h8.8v27c0 9.3 1.9 15.6 5.7 19.5 3.2 3.4 8.8 5.7 15.4 5.7 5.8 0 10.7-.7 13.3-1.8l-.1-15.5c-1.5.3-3.5.5-6.1.5-6.2 0-8.1-3.6-8.1-11.6v-23.9h14.7v-15.1h-14.7v-18.9l-20.1 4.7zm82.2 39.7c0-5-2.2-13.3-11.6-13.3-8.6 0-12.1 7.8-12.7 13.3H442zm-24.1 14.1c.7 8.5 9 12.5 18.6 12.5 7 0 12.7-.9 18.2-2.7l2.7 13.9c-6.7 2.7-15 4-23.9 4-22.4 0-35.2-12.9-35.2-33.6 0-16.7 10.4-35.2 33.3-35.2 21.3 0 29.4 16.6 29.4 32.9 0 3.5-.4 6.6-.7 8.1h-42.4zm-75.6-52.4c-2.6-.1-5.1.5-5.1 2.8 0 1.5.9 2.1 2.1 2.1 1.5 0 2.6-1 2.9-2 .1-.3.1-.6.1-.8v-2.1zm.5 7.2-.2-1.6h-.1c-.9 1.2-2.5 2-4.4 2-3 0-4.6-2.1-4.6-4.4 0-3.7 3.3-5.6 8.8-5.6v-.2c0-1-.4-2.6-3-2.6-1.5 0-3 .5-4 1.1l-.7-2.4c1.1-.7 3-1.3 5.3-1.3 4.7 0 6.1 3 6.1 6.2v5.3c0 1.3.1 2.6.2 3.5h-3.4zm-18.9-19v4.2h3.5v2.8h-3.5v6.5c0 1.8.5 2.7 1.9 2.7.6 0 1.1-.1 1.5-.2l.1 2.8c-.5.2-1.5.4-2.7.4-1.4 0-2.5-.5-3.2-1.2-.8-.8-1.2-2.2-1.2-4.1V218h-2.1v-2.8h2.1v-3.3l3.6-.9zm-21.4 15.5c.8.5 2.5 1.1 3.8 1.1 1.6 0 2.4-.7 2.4-1.6 0-1-.6-1.5-2.4-2.2-2.9-1-4.1-2.6-4.1-4.3 0-2.6 2.1-4.6 5.6-4.6 1.6 0 3.1.4 3.9.9l-.7 2.6c-.6-.4-1.8-.8-3.1-.8s-2.1.6-2.1 1.5.7 1.4 2.6 2.1c2.7 1 3.9 2.3 3.9 4.5 0 2.7-2.1 4.6-6 4.6-1.8 0-3.4-.4-4.5-1l.7-2.8zm-7.9-15.4c0 1.1-.8 2-2.1 2-1.2 0-2.1-.9-2.1-2 0-1.2.8-2 2.1-2s2.1.8 2.1 2zm-3.9 18.9v-14.7h3.8V230h-3.8zm-17.3-14.8 2.4 7.5c.4 1.3.7 2.5 1 3.7h.1c.3-1.2.6-2.4 1-3.7l2.3-7.5h3.9l-5.6 14.7h-3.7l-5.5-14.7h4.1zm-13.1 5.8c0-1.4-.6-3.6-3.1-3.6-2.3 0-3.3 2.1-3.4 3.6h6.5zm-6.5 2.6c.1 2.7 2.2 3.8 4.5 3.8 1.7 0 3-.2 4.1-.7l.5 2.6c-1.3.5-3 .9-5.1.9-4.8 0-7.6-2.9-7.6-7.4 0-4.1 2.5-7.9 7.2-7.9 4.8 0 6.4 3.9 6.4 7.2 0 .7-.1 1.2-.1 1.6h-9.9zm-20.3-4.8h2.2c2.5 0 4.1-1.3 4.1-3.4 0-2.2-1.6-3.3-4-3.3-1.2 0-1.9.1-2.3.2v6.5zm-3.7-9c1.4-.2 3.5-.4 5.6-.4 2.9 0 4.9.5 6.3 1.6 1.1.9 1.8 2.4 1.8 4.1 0 2.6-1.8 4.4-3.7 5.1v.1c1.5.5 2.3 2 2.8 3.9.6 2.5 1.2 4.9 1.6 5.7h-3.8c-.3-.6-.8-2.3-1.4-4.8-.6-2.7-1.5-3.5-3.7-3.6h-1.9v8.4h-3.7v-20.1zm-106.3 52.9c-5.5-.1-9.7 1.2-9.7 5.3 0 2.7 1.8 4 4.1 4 2.6 0 4.7-1.7 5.4-3.8.1-.5.2-1.2.2-1.8v-3.7zm1.3 15.8-.6-3.4h-.2c-2.2 2.7-5.6 4.1-9.6 4.1-6.8 0-10.8-4.9-10.8-10.3 0-8.7 7.8-12.9 19.6-12.8v-.5c0-1.8-1-4.3-6.1-4.3-3.4 0-7 1.2-9.2 2.5l-1.9-6.7c2.3-1.3 6.9-2.9 13-2.9 11.1 0 14.7 6.6 14.7 14.4v11.6c0 3.2.1 6.3.5 8.1h-9.4zm-51-7.8c.9.2 2.3.2 3.6.2 9.4.1 15.6-5.1 15.6-16.1.1-9.6-5.5-14.6-14.5-14.6-2.3 0-3.8.2-4.7.4v30.1zM63.3 233c3.8-.6 8.8-1 14.1-1 8.8 0 14.4 1.6 18.9 4.9 4.8 3.6 7.8 9.2 7.8 17.4 0 8.8-3.2 14.9-7.7 18.7-4.9 4-12.2 5.9-21.3 5.9-5.4 0-9.2-.3-11.8-.7V233zM51 255.7c0 25.4 20.6 45.9 45.9 45.9 25.4 0 45.9-20.5 45.9-45.9s-20.6-45.9-45.9-45.9c-25.3 0-45.9 20.5-45.9 45.9z" clip-rule="evenodd"/>
</svg>
