<svg xmlns="http://www.w3.org/2000/svg" xml:space="preserve" width="437" height="100" fill-rule="evenodd" clip-rule="evenodd" image-rendering="optimizeQuality" shape-rendering="geometricPrecision" text-rendering="geometricPrecision" viewBox="0 0 435.38 99.67">
  <defs>
    <linearGradient id="a" x1="93.5" x2="93.5" y1="39.93" y2="118.98" gradientUnits="userSpaceOnUse">
      <stop offset="0" stop-color="#606062"/>
      <stop offset="1" stop-color="#4B4B4D"/>
    </linearGradient>
    <linearGradient id="b" x1="177.11" x2="177.11" y1="55.7" y2="114.3" gradientUnits="userSpaceOnUse">
      <stop offset="0" stop-color="#606062"/>
      <stop offset="1" stop-color="#4B4B4D"/>
    </linearGradient>
    <linearGradient id="c" x1="247.8" x2="247.8" y1="55.14" y2="112.58" gradientUnits="userSpaceOnUse">
      <stop offset="0" stop-color="#606062"/>
      <stop offset="1" stop-color="#4B4B4D"/>
    </linearGradient>
    <linearGradient id="d" x1="318.65" x2="318.65" y1="44.58" y2="118" gradientUnits="userSpaceOnUse">
      <stop offset="0" stop-color="#606062"/>
      <stop offset="1" stop-color="#4B4B4D"/>
    </linearGradient>
    <linearGradient id="e" x1="368.81" x2="368.81" y1="55.7" y2="114.3" gradientUnits="userSpaceOnUse">
      <stop offset="0" stop-color="#606062"/>
      <stop offset="1" stop-color="#4B4B4D"/>
    </linearGradient>
    <linearGradient id="f" x1="189.84" x2="189.84" y1="8.97" y2="27.06" gradientUnits="userSpaceOnUse">
      <stop offset="0" stop-color="#606062"/>
      <stop offset="1" stop-color="#4B4B4D"/>
    </linearGradient>
    <linearGradient id="g" x1="-10.53" x2="30.2" y1="8.26" y2="115.42" gradientUnits="userSpaceOnUse">
      <stop offset="0" stop-color="#A8CF45"/>
      <stop offset="1" stop-color="#92C04A"/>
    </linearGradient>
  </defs>
  <path fill="url(#a)" d="M172.9 42.98h-35.93v17.04h14.88v20.19c-1.71.85-5.72 1.43-10.73 1.43-17.9 0-30.35-11.74-30.35-31.64 0-20.9 13.74-31.21 31.92-31.21 10.6 0 17.18 1.86 22.48 4.15l4.58-17.46C165.03 3.19 155.43.75 142.98.75c-21.61 0-39.34 8.55-48.46 24.19 4.22 7.21 6.64 15.6 6.64 24.56 0 9.66-2.81 18.67-7.66 26.24 2.11 3.96 4.78 7.5 7.96 10.48 8.88 8.59 21.62 13.03 39.23 13.03 12.74 0 25.48-3.15 32.21-5.44V42.98z"/>
  <path fill="url(#b)" fill-rule="nonzero" d="M242.96 70.19c.29-1.58.71-4.87.71-8.59 0-17.33-8.58-34.93-31.2-34.93-24.34 0-35.36 19.61-35.36 37.36 0 21.9 13.6 35.64 37.36 35.64 9.45 0 18.18-1.43 25.34-4.29l-2.86-14.74c-5.87 1.86-11.89 2.86-19.33 2.86-10.16 0-19.04-4.3-19.75-13.31h45.09zM197.72 55.3c.58-5.87 4.3-14.18 13.46-14.18 10.02 0 12.31 8.88 12.31 14.18h-25.77z"/>
  <path fill="url(#c)" fill-rule="nonzero" d="M248.37 98.24h21.76V57.87c0-2 .29-4.15.86-5.44 1.43-4 5.01-8.16 11.02-8.16 7.87 0 11.02 6.16 11.02 15.18v38.79h21.76V56.73c0-20.62-10.73-30.06-25.05-30.06-11.59 0-18.75 6.72-21.62 11.16h-.42l-1.01-9.59H247.8c.28 6.16.57 13.6.57 22.33v47.67z"/>
  <path fill="url(#d)" fill-rule="nonzero" d="M327.95 13.07v15.17h-9.3v16.03h9.3V72.9c0 9.88 2.01 16.61 6.01 20.76 3.44 3.58 9.31 6.01 16.32 6.01 6.16 0 11.31-.71 14.18-1.86l-.15-16.46c-1.57.29-3.72.57-6.44.57-6.58 0-8.59-3.86-8.59-12.31V44.27h15.61V28.24h-15.61V8.2l-21.33 4.87z"/>
  <path fill="url(#e)" fill-rule="nonzero" d="M434.66 70.19c.29-1.58.72-4.87.72-8.59 0-17.33-8.59-34.93-31.21-34.93-24.33 0-35.36 19.61-35.36 37.36 0 21.9 13.6 35.64 37.37 35.64 9.44 0 18.18-1.43 25.33-4.29l-2.86-14.74c-5.87 1.86-11.88 2.86-19.32 2.86-10.17 0-19.04-4.3-19.76-13.31h45.09zM389.43 55.3c.57-5.87 4.29-14.18 13.45-14.18 10.02 0 12.32 8.88 12.32 14.18h-25.77z"/>
  <path fill="url(#f)" fill-rule="nonzero" d="M189.83 22.19h3.93v-8.91h1.99c2.25.06 3.28.96 3.89 3.79.61 2.71 1.13 4.47 1.45 5.12h4.08c-.45-.84-1.03-3.35-1.7-6.05-.55-2.09-1.48-3.6-3.02-4.18v-.09c2.02-.74 3.92-2.64 3.92-5.44 0-1.83-.68-3.34-1.87-4.34-1.44-1.22-3.57-1.74-6.68-1.74-2.29 0-4.51.2-5.99.45v21.39zm3.93-18.65c.38-.1 1.19-.2 2.44-.2 2.57 0 4.25 1.1 4.25 3.48 0 2.15-1.68 3.57-4.34 3.57h-2.35V3.54zm32.12 11.93c.07-.36.13-.94.13-1.68 0-3.44-1.67-7.62-6.75-7.62-5.02 0-7.66 4.09-7.66 8.43 0 4.79 2.99 7.91 8.07 7.91 2.26 0 4.12-.42 5.47-.97l-.58-2.73c-1.19.45-2.51.71-4.34.71-2.51 0-4.73-1.22-4.82-4.05h10.48zM215.4 12.7c.16-1.61 1.19-3.83 3.63-3.83 2.64 0 3.28 2.38 3.25 3.83h-6.88zm16.46-6.17 5.82 15.66h3.89l5.98-15.66h-4.18l-2.47 7.94c-.42 1.41-.77 2.64-1.06 3.92h-.1c-.29-1.28-.61-2.54-1.06-3.92l-2.54-7.94h-4.28zm26.63 15.66V6.53h-3.99v15.66h3.99zm-2-22.19c-1.32 0-2.22.93-2.22 2.15 0 1.19.87 2.13 2.19 2.13 1.38 0 2.25-.94 2.25-2.13-.03-1.22-.87-2.15-2.22-2.15zm9.81 21.42c1.16.64 2.86 1.09 4.76 1.09 4.15 0 6.37-2.06 6.37-4.89-.04-2.31-1.35-3.76-4.18-4.79-2-.71-2.74-1.19-2.74-2.19 0-.96.77-1.64 2.19-1.64 1.38 0 2.64.52 3.31.9l.77-2.79c-.9-.49-2.41-.94-4.14-.94-3.64 0-5.92 2.16-5.92 4.92-.03 1.84 1.25 3.51 4.31 4.57 1.93.67 2.57 1.22 2.57 2.28 0 1.03-.77 1.74-2.51 1.74-1.41 0-3.12-.58-4.02-1.13l-.77 2.87zm19.58-18.43v3.54h-2.25v2.96h2.25v7.36c0 2.06.39 3.47 1.23 4.37.73.81 1.96 1.29 3.4 1.29 1.26 0 2.29-.16 2.87-.39l-.07-3.02c-.35.1-.87.19-1.54.19-1.51 0-2.03-.99-2.03-2.89V9.49h3.76V6.53h-3.76V2.06l-3.86.93zm27.53 19.2c-.16-.97-.23-2.35-.23-3.77v-5.65c0-3.41-1.44-6.6-6.46-6.6-2.48 0-4.5.68-5.66 1.39l.77 2.57c1.06-.68 2.67-1.16 4.21-1.16 2.77 0 3.19 1.71 3.19 2.73v.26c-5.79-.03-9.29 1.96-9.29 5.92 0 2.38 1.76 4.66 4.92 4.66 2.02 0 3.66-.87 4.63-2.09h.09l.26 1.74h3.57zm-4.09-5.5c0 .26-.03.58-.12.87-.36 1.12-1.52 2.15-3.09 2.15-1.25 0-2.25-.71-2.25-2.25 0-2.38 2.67-2.99 5.46-2.93v2.16z"/>
  <path fill="url(#g)" d="M48.74.76c26.92 0 48.74 21.82 48.74 48.74S75.66 98.24 48.74 98.24 0 76.42 0 49.5 21.82.76 48.74.76z"/>
  <path fill="#FEFEFE" fill-rule="nonzero" d="M13.07 73.54c2.76.36 6.82.72 12.56.72 9.59 0 17.43-2.03 22.58-6.31 4.72-4 8.14-10.46 8.14-19.83 0-8.64-3.2-14.67-8.28-18.44-4.72-3.56-10.75-5.23-20.04-5.23-5.59 0-10.9.36-14.96 1.02v48.07zm11.11-40.16c.94-.22 2.54-.43 5.01-.43 9.51 0 15.47 5.37 15.39 15.54 0 11.69-6.53 17.21-16.55 17.13-1.38 0-2.91 0-3.85-.21V33.38zm64.1 40.38c-.36-1.96-.5-5.23-.5-8.65V52.77c0-8.35-3.78-15.32-15.62-15.32-6.46 0-11.32 1.74-13.79 3.12l2.03 7.12c2.32-1.46 6.17-2.69 9.8-2.69 5.45 0 6.47 2.69 6.47 4.57v.51c-12.57-.07-20.85 4.36-20.85 13.58 0 5.67 4.29 10.9 11.48 10.9 4.21 0 7.84-1.53 10.16-4.36h.22l.66 3.56h9.94zM77.03 60.83c0 .65-.07 1.31-.22 1.89-.73 2.25-2.98 4.07-5.74 4.07-2.47 0-4.35-1.38-4.35-4.22 0-4.28 4.5-5.66 10.31-5.59v3.85z"/>
</svg>
