<svg xmlns="http://www.w3.org/2000/svg" xml:space="preserve" width="437" height="100" fill-rule="evenodd" clip-rule="evenodd" image-rendering="optimizeQuality" shape-rendering="geometricPrecision" text-rendering="geometricPrecision" viewBox="0 0 178.88 40.95">
  <g fill="#FEFEFE">
    <path d="M71.04 17.66H56.27v7h6.12v8.29c-.71.36-2.35.59-4.41.59-7.35 0-12.47-4.82-12.47-13 0-8.59 5.65-12.82 13.12-12.82 4.35 0 7.05.76 9.23 1.71l1.88-7.18c-1.94-.94-5.88-1.94-11-1.94-8.87 0-16.16 3.51-19.91 9.94 1.74 2.96 2.73 6.41 2.73 10.09 0 3.97-1.15 7.67-3.14 10.78.86 1.63 1.96 3.08 3.27 4.3 3.64 3.53 8.88 5.36 16.11 5.36 5.24 0 10.47-1.3 13.24-2.24V17.66z"/>
    <path fill-rule="nonzero" d="M99.82 28.84c.12-.65.3-2 .3-3.53 0-7.12-3.53-14.35-12.83-14.35-9.99 0-14.52 8.05-14.52 15.35 0 9 5.58 14.64 15.35 14.64 3.88 0 7.47-.59 10.41-1.76l-1.18-6.06c-2.41.76-4.88 1.18-7.94 1.18-4.17 0-7.82-1.77-8.12-5.47h18.53zm-18.58-6.12c.23-2.41 1.76-5.82 5.52-5.82 4.12 0 5.06 3.64 5.06 5.82H81.24zm20.8 17.64h8.94V23.78c0-.83.12-1.71.36-2.24.59-1.64 2.06-3.35 4.53-3.35 3.23 0 4.52 2.53 4.52 6.23v15.94h8.94V23.31c0-8.47-4.41-12.35-10.29-12.35-4.76 0-7.7 2.76-8.88 4.58h-.18l-.41-3.94h-7.76c.12 2.53.23 5.59.23 9.18v19.58zm32.7-34.99v6.23h-3.82v6.59h3.82v11.76c0 4.06.82 6.83 2.47 8.53 1.41 1.47 3.82 2.47 6.71 2.47 2.53 0 4.64-.29 5.82-.76l-.06-6.77c-.65.12-1.53.24-2.65.24-2.7 0-3.52-1.59-3.52-5.06V18.19h6.41V11.6h-6.41V3.37l-8.77 2zm43.84 23.47c.12-.65.3-2 .3-3.53 0-7.12-3.53-14.35-12.82-14.35-10 0-14.53 8.05-14.53 15.35 0 9 5.59 14.64 15.35 14.64 3.88 0 7.47-.59 10.41-1.76l-1.18-6.06c-2.41.76-4.88 1.18-7.94 1.18-4.17 0-7.82-1.77-8.11-5.47h18.52zM160 22.72c.23-2.41 1.76-5.82 5.53-5.82 4.11 0 5.06 3.64 5.06 5.82H160zM77.99 9.12h1.62V5.46h.82c.92.02 1.34.39 1.59 1.55.26 1.11.47 1.84.6 2.11h1.68c-.19-.35-.43-1.38-.7-2.49-.23-.86-.61-1.48-1.25-1.72v-.04c.84-.3 1.62-1.08 1.62-2.23 0-.75-.28-1.37-.77-1.78-.59-.5-1.47-.71-2.75-.71-.94 0-1.85.07-2.46.18v8.79zm1.62-7.67c.16-.04.49-.08 1-.08 1.06 0 1.74.45 1.74 1.43 0 .89-.68 1.47-1.78 1.47h-.96V1.45zm13.19 4.9c.03-.14.06-.38.06-.68 0-1.42-.69-3.13-2.78-3.13-2.06 0-3.14 1.67-3.14 3.46 0 1.97 1.23 3.25 3.31 3.25.93 0 1.7-.17 2.25-.4l-.24-1.12c-.49.18-1.03.29-1.78.29-1.03 0-1.94-.5-1.98-1.67h4.3zm-4.3-1.13c.06-.66.49-1.57 1.49-1.57 1.08 0 1.35.97 1.33 1.57H88.5zm6.76-2.54 2.39 6.44h1.6l2.46-6.44h-1.72l-1.02 3.26c-.17.59-.31 1.09-.43 1.62h-.04c-.12-.53-.25-1.05-.44-1.62l-1.04-3.26h-1.76zm10.94 6.44V2.68h-1.64v6.44h1.64zM105.38 0c-.54 0-.91.38-.91.89 0 .48.36.87.9.87.57 0 .92-.39.92-.87-.01-.51-.35-.89-.91-.89zm4.03 8.8c.48.26 1.18.45 1.96.45 1.7 0 2.61-.85 2.61-2.01-.01-.95-.55-1.55-1.71-1.97-.82-.29-1.13-.49-1.13-.9 0-.39.32-.67.9-.67.57 0 1.08.21 1.36.37l.32-1.15c-.37-.2-.99-.38-1.71-.38-1.49 0-2.43.88-2.43 2.02-.01.75.52 1.44 1.77 1.87.8.28 1.06.51 1.06.94 0 .42-.32.72-1.03.72-.58 0-1.28-.24-1.65-.47l-.32 1.18zm8.05-7.57v1.45h-.93V3.9h.93v3.02c0 .85.16 1.43.5 1.8.3.33.81.53 1.4.53.51 0 .94-.07 1.18-.16l-.03-1.24c-.15.04-.36.08-.64.08-.62 0-.83-.41-.83-1.19V3.9h1.55V2.68h-1.55V.85l-1.58.38zm11.31 7.89c-.07-.4-.1-.97-.1-1.55V5.24c0-1.4-.59-2.7-2.65-2.7-1.02 0-1.85.27-2.33.56l.32 1.06c.44-.28 1.1-.47 1.73-.47 1.14 0 1.31.7 1.31 1.12v.1c-2.38-.01-3.82.81-3.82 2.44 0 .97.73 1.91 2.02 1.91.83 0 1.51-.36 1.9-.86h.04l.11.72h1.47zm-1.68-2.26c0 .1-.02.23-.05.35-.15.47-.63.89-1.27.89-.52 0-.93-.29-.93-.93 0-.97 1.1-1.23 2.25-1.2v.89z"/>
    <path d="M20.03.31c11.06 0 20.02 8.97 20.02 20.03s-8.96 20.02-20.02 20.02C8.97 40.36 0 31.4 0 20.34 0 9.28 8.97.31 20.03.31zM5.37 30.21c1.13.15 2.8.3 5.16.3 3.94 0 7.16-.83 9.28-2.59 1.94-1.64 3.34-4.3 3.34-8.15 0-3.55-1.31-6.03-3.4-7.58-1.94-1.46-4.42-2.14-8.24-2.14-2.29 0-4.47.14-6.14.41v19.75zm4.56-16.49c.39-.09 1.05-.18 2.06-.18 3.91 0 6.36 2.2 6.33 6.38 0 4.8-2.69 7.07-6.81 7.04-.56 0-1.19 0-1.58-.09V13.72zM36.27 30.3c-.15-.8-.21-2.14-.21-3.55v-5.07c0-3.43-1.55-6.29-6.41-6.29-2.66 0-4.66.71-5.67 1.28l.84 2.92c.95-.59 2.53-1.1 4.02-1.1 2.24 0 2.66 1.1 2.66 1.88v.21c-5.16-.03-8.56 1.79-8.56 5.58 0 2.32 1.76 4.47 4.71 4.47 1.73 0 3.22-.63 4.18-1.79h.09l.26 1.46h4.09zm-4.62-5.31c0 .27-.03.54-.09.78-.3.92-1.23 1.67-2.36 1.67-1.01 0-1.79-.57-1.79-1.73 0-1.76 1.85-2.33 4.24-2.3v1.58z"/>
  </g>
</svg>
